# 3ds Max Wavefront OBJ Exporter v0.99 - (c)2007 guruware
# File Created: 27.08.2021 18:03:59

mtllib libro_cerrado2_uvs.mtl

#
# object Box013
#

v  -5.0288 0.1588 0.5106
v  -5.0280 0.1588 0.4939
v  -4.5179 0.1588 0.4939
v  -4.5170 0.1588 0.5106
v  -5.0288 0.3067 0.5106
v  -4.5171 0.3067 0.5106
v  -4.5179 0.3067 0.4939
v  -4.6234 0.3067 0.4939
v  -4.7174 0.3067 0.4939
v  -5.0280 0.3067 0.4939
v  -5.0230 0.1699 0.5106
v  -4.5229 0.1699 0.5106
v  -4.5229 0.2301 0.5175
v  -5.0230 0.2301 0.5175
v  -4.5179 0.1878 0.4939
v  -4.5179 0.2717 0.4939
v  -4.5179 0.2301 0.5175
v  -4.5196 0.1699 0.2003
v  -4.5881 0.1699 0.2003
v  -4.5894 0.1878 0.2003
v  -4.5196 0.1878 0.2003
v  -5.0230 0.1699 0.2777
v  -5.0230 0.1699 0.4939
v  -5.0230 0.1878 0.4939
v  -5.0230 0.1878 0.2785
v  -4.5196 0.2717 0.2003
v  -4.5196 0.2956 0.2003
v  -4.5196 0.2956 0.2730
v  -4.5196 0.2717 0.2724
v  -5.0263 0.2717 0.2003
v  -5.0263 0.2956 0.2003
v  -4.9482 0.2956 0.2003
v  -4.9485 0.2717 0.2003
v  -4.5329 0.1878 0.2155
v  -4.5329 0.2717 0.2155
v  -4.5329 0.2717 0.4939
v  -4.5329 0.1878 0.4939
v  -5.0130 0.1878 0.2155
v  -5.0130 0.2717 0.2155
v  -4.5914 0.1588 0.2045
v  -4.5229 0.1588 0.2045
v  -4.5229 0.1588 0.2711
v  -4.6666 0.2956 0.2045
v  -4.8768 0.2956 0.2045
v  -4.8295 0.2956 0.2640
v  -4.8315 0.2956 0.4939
v  -4.7174 0.2956 0.4939
v  -4.7174 0.2956 0.2660
v  -4.5229 0.1699 0.4939
v  -4.5229 0.1699 0.2711
v  -4.5229 0.1878 0.2712
v  -4.5229 0.1878 0.4939
v  -5.0280 0.2301 0.5175
v  -5.0280 0.2717 0.4939
v  -5.0280 0.1878 0.4939
v  -5.0230 0.2956 0.4939
v  -5.0230 0.2956 0.2810
v  -5.0230 0.2717 0.2809
v  -5.0230 0.2717 0.4939
v  -5.0130 0.2717 0.4939
v  -5.0130 0.1878 0.4939
v  -4.5229 0.2717 0.2045
v  -4.5229 0.2717 0.2766
v  -4.5229 0.2717 0.4939
v  -4.5229 0.1878 0.2045
v  -4.5927 0.1878 0.2045
v  -4.9524 0.1878 0.2045
v  -5.0230 0.1878 0.2045
v  -5.0230 0.2717 0.2045
v  -4.9451 0.2717 0.2045
v  -4.5986 0.2717 0.2045
v  -4.5229 0.2956 0.5106
v  -5.0230 0.2956 0.5106
v  -4.5229 0.3067 0.2772
v  -4.5229 0.3067 0.2045
v  -4.5996 0.3067 0.2045
v  -4.5964 0.2956 0.2003
v  -4.5953 0.2717 0.2003
v  -4.5229 0.2956 0.2772
v  -4.5229 0.2956 0.4939
v  -4.5964 0.3067 0.2003
v  -4.5196 0.3067 0.2003
v  -4.5996 0.2956 0.2045
v  -4.5196 0.3067 0.2730
v  -4.9449 0.3067 0.2045
v  -5.0230 0.3067 0.2045
v  -5.0230 0.3067 0.2810
v  -5.0263 0.2956 0.2768
v  -5.0263 0.2717 0.2767
v  -4.9449 0.2956 0.2045
v  -5.0263 0.3067 0.2768
v  -5.0263 0.3067 0.2003
v  -4.9482 0.3067 0.2003
v  -4.9539 0.1699 0.2045
v  -4.5914 0.1699 0.2045
v  -4.5196 0.1699 0.2669
v  -4.5196 0.1878 0.2671
v  -5.0230 0.1588 0.2777
v  -5.0230 0.1588 0.2045
v  -4.9539 0.1588 0.2045
v  -4.9574 0.1699 0.2005
v  -5.0264 0.1699 0.2005
v  -5.0264 0.1878 0.2005
v  -4.9558 0.1878 0.2005
v  -5.0264 0.1878 0.2745
v  -5.0264 0.1699 0.2737
v  -4.5196 0.1588 0.2669
v  -4.5196 0.1588 0.2003
v  -4.5881 0.1588 0.2003
v  -4.9574 0.1588 0.2005
v  -5.0264 0.1588 0.2005
v  -5.0264 0.1588 0.2737
v  -4.9293 0.2956 0.4939
v  -4.6234 0.2956 0.4939
v  -4.6221 0.2956 0.2678
v  -4.6221 0.3067 0.2678
v  -4.7174 0.3067 0.2664
v  -4.9244 0.2956 0.2637
v  -4.8768 0.3067 0.2045
v  -4.9244 0.3067 0.2634
v  -4.8295 0.3067 0.2640
v  -4.8315 0.3067 0.4939
v  -4.9293 0.3067 0.4939
v  -4.6666 0.3067 0.2045
# 124 vertices

vn -0.5998 -0.5979 0.5317
vn -0.5592 -0.5804 -0.5920
vn 0.5592 -0.5804 -0.5920
vn 0.5998 -0.5979 0.5317
vn -0.5968 0.5974 0.5356
vn 0.5968 0.5974 0.5356
vn 0.5608 0.5801 -0.5907
vn 0.0000 0.7071 -0.7071
vn -0.5608 0.5801 -0.5907
vn 0.0680 -0.1362 0.9884
vn -0.0680 -0.1362 0.9884
vn 0.0000 -0.0086 1.0000
vn 0.6991 0.0005 -0.7150
vn 0.6172 -0.0039 0.7868
vn 0.7071 0.0000 -0.7071
vn -0.3955 -0.0297 -0.9180
vn -0.3571 0.5985 -0.7171
vn 0.5774 0.5774 -0.5774
vn -0.5478 -0.4923 0.6765
vn -0.3015 -0.3015 -0.9045
vn -0.3015 0.3015 -0.9045
vn -0.5706 0.7923 0.2160
vn 0.5774 -0.5774 -0.5774
vn 0.9361 -0.0077 0.3515
vn 0.7212 -0.6421 0.2598
vn -0.5774 -0.5774 -0.5774
vn -0.7071 0.0000 -0.7071
vn 0.4127 -0.0046 -0.9109
vn 0.3152 -0.6288 -0.7108
vn 0.3015 0.9045 -0.3015
vn 0.3015 -0.9045 -0.3015
vn -0.3015 0.9045 -0.3015
vn -0.3015 -0.9045 -0.3015
vn -0.8147 -0.5775 0.0532
vn 0.0000 -1.0000 -0.0000
vn 0.0532 -0.5772 0.8149
vn 0.0146 0.3193 -0.9475
vn 0.0012 0.3087 -0.9512
vn 0.7242 -0.6352 -0.2683
vn 0.5804 0.5768 -0.5748
vn -0.5774 0.5773 -0.5774
vn -0.7239 -0.6250 -0.2921
vn 0.3015 -0.3015 -0.9045
vn 0.5865 -0.4684 0.6607
vn 0.5699 0.7939 0.2120
vn 0.3015 0.3015 -0.9045
vn -0.6172 -0.0039 0.7868
vn -0.6991 0.0005 -0.7150
vn -0.5871 0.4652 0.6625
vn -0.5638 -0.7974 0.2153
vn -0.5774 0.5774 -0.5774
vn 0.5624 -0.7987 0.2141
vn 0.0000 1.0000 -0.0000
vn -0.2288 0.7964 -0.5598
vn 0.2166 0.7879 -0.5765
vn 0.2408 -0.8146 -0.5277
vn -0.2473 -0.8249 -0.5082
vn -0.0640 0.1261 0.9900
vn 0.0640 0.1261 0.9900
vn 0.0624 0.5774 0.8140
vn -0.8141 0.5773 0.0622
vn -0.4274 -0.0204 -0.9038
vn -0.3053 -0.6380 -0.7069
vn 0.6015 0.4559 0.6560
vn -0.3262 0.6241 -0.7100
vn -0.7028 0.4870 -0.5185
vn 0.7231 0.6366 0.2679
vn 0.8150 0.5773 0.0491
vn -0.0491 0.5774 0.8150
vn -0.9346 -0.0018 0.3558
vn -0.7216 -0.6367 0.2720
vn 0.6997 0.4947 -0.5155
vn -0.7220 0.6353 0.2740
vn 0.3201 0.6254 -0.7116
vn 0.6897 -0.5230 -0.5008
vn -0.7014 -0.5287 -0.4781
vn 0.9367 -0.0027 0.3502
vn 0.7232 0.6337 0.2745
vn -0.0176 -0.5773 0.8164
vn 0.8162 -0.5774 0.0176
vn 0.3721 -0.0338 -0.9276
vn 0.3461 0.5971 -0.7236
vn -0.7231 0.6191 0.3063
vn -0.9316 -0.0157 0.3631
vn 0.7225 -0.6358 0.2715
vn -0.3226 -0.6249 -0.7110
vn 0.3057 -0.6284 -0.7153
vn -0.7192 -0.6321 0.2885
vn -0.5699 0.5786 -0.5834
vn 0.5794 0.5770 -0.5757
vn 0.7276 -0.6398 -0.2478
vn -0.5774 0.5774 0.5774
vn 0.5753 0.5777 0.5790
vn 0.7272 0.6408 -0.2463
vn -0.7185 0.6427 -0.2660
vn -0.7153 -0.6430 -0.2738
vn 0.0036 0.5712 -0.8208
vn -0.7189 0.6308 -0.2920
vn 0.7245 0.6346 -0.2692
vn 0.5743 0.5779 0.5799
vn -0.5846 0.5762 0.5712
vn 0.0312 0.5688 -0.8219
# 102 vertex normals

vt 0.0857 0.0192 0.0000
vt 0.0867 0.0010 0.0000
vt 0.7013 0.0010 0.0000
vt 0.7024 0.0192 0.0000
vt 0.7128 0.0404 0.0000
vt 0.0962 0.0404 0.0000
vt 0.0972 0.0222 0.0000
vt 0.2244 0.0222 0.0000
vt 0.3376 0.0222 0.0000
vt 0.7118 0.0222 0.0000
vt 0.0756 0.0134 0.0000
vt 0.0756 0.6159 0.0000
vt 0.0427 0.6159 0.0000
vt 0.0427 0.0134 0.0000
vt 0.0932 0.4614 0.0000
vt 0.1114 0.4614 0.0000
vt 0.1114 0.4771 0.0000
vt 0.1114 0.5229 0.0000
vt 0.1114 0.5419 0.0000
vt 0.0932 0.5419 0.0000
vt 0.0857 0.5002 0.0000
vt 0.7683 0.3774 0.0000
vt 0.8508 0.3774 0.0000
vt 0.8523 0.3872 0.0000
vt 0.7683 0.3872 0.0000
vt 0.5653 0.4205 0.0000
vt 0.3297 0.4205 0.0000
vt 0.3297 0.4107 0.0000
vt 0.5644 0.4107 0.0000
vt 0.2601 0.7941 0.0000
vt 0.2601 0.7811 0.0000
vt 0.3393 0.7811 0.0000
vt 0.3388 0.7941 0.0000
vt 0.9937 0.1004 0.0000
vt 0.9807 0.1004 0.0000
vt 0.9807 0.0063 0.0000
vt 0.9937 0.0066 0.0000
vt 0.6659 0.9975 0.0000
vt 0.6201 0.9975 0.0000
vt 0.6201 0.6942 0.0000
vt 0.6659 0.6942 0.0000
vt 0.1685 0.7276 0.0000
vt 0.1227 0.7276 0.0000
vt 0.1227 0.1492 0.0000
vt 0.1685 0.1492 0.0000
vt 0.9890 0.3026 0.0000
vt 0.9890 0.3852 0.0000
vt 0.9164 0.3852 0.0000
vt 0.9632 0.3217 0.0000
vt 0.7101 0.3217 0.0000
vt 0.7670 0.2568 0.0000
vt 0.7646 0.0063 0.0000
vt 0.9021 0.0063 0.0000
vt 0.9021 0.2546 0.0000
vt 0.6495 0.4574 0.0000
vt 0.4067 0.4574 0.0000
vt 0.4068 0.4476 0.0000
vt 0.6495 0.4476 0.0000
vt 0.0857 0.5566 0.0000
vt 0.1039 0.5566 0.0000
vt 0.1114 0.5955 0.0000
vt 0.1039 0.6372 0.0000
vt 0.0857 0.6372 0.0000
vt 0.0857 0.6182 0.0000
vt 0.0857 0.5724 0.0000
vt 0.3296 0.4336 0.0000
vt 0.5616 0.4336 0.0000
vt 0.5617 0.4466 0.0000
vt 0.3296 0.4466 0.0000
vt 0.0539 0.9446 0.0000
vt 0.0539 0.6413 0.0000
vt 0.0997 0.6413 0.0000
vt 0.0997 0.9446 0.0000
vt 0.0102 0.9937 0.0000
vt 0.0102 0.9151 0.0000
vt 0.0102 0.6783 0.0000
vt 0.0223 0.6783 0.0000
vt 0.0223 0.9817 0.0000
vt 0.1023 0.1049 0.0000
vt 0.1023 0.0591 0.0000
vt 0.1143 0.0591 0.0000
vt 0.1143 0.1049 0.0000
vt 0.1002 0.4479 0.0000
vt 0.1002 0.2053 0.0000
vt 0.1002 0.1325 0.0000
vt 0.1123 0.1446 0.0000
vt 0.1123 0.4479 0.0000
vt 0.1843 0.1325 0.0000
vt 0.6177 0.1325 0.0000
vt 0.7028 0.1325 0.0000
vt 0.6907 0.1446 0.0000
vt 0.7028 0.2132 0.0000
vt 0.7028 0.4479 0.0000
vt 0.6907 0.4479 0.0000
vt 0.7048 0.0591 0.0000
vt 0.7048 0.1049 0.0000
vt 0.6928 0.1049 0.0000
vt 0.6928 0.0591 0.0000
vt 0.6128 0.6783 0.0000
vt 0.6128 0.9105 0.0000
vt 0.6128 0.9937 0.0000
vt 0.6007 0.9817 0.0000
vt 0.6007 0.6783 0.0000
vt 0.5190 0.9937 0.0000
vt 0.1014 0.9937 0.0000
vt 0.0070 0.6159 0.0000
vt 0.0070 0.0134 0.0000
vt 0.4137 0.6769 0.0000
vt 0.4929 0.6769 0.0000
vt 0.4929 0.7694 0.0000
vt 0.9807 0.1993 0.0000
vt 0.9807 0.1068 0.0000
vt 0.9937 0.1068 0.0000
vt 0.9937 0.1980 0.0000
vt 0.3439 0.7811 0.0000
vt 0.5801 0.7811 0.0000
vt 0.5801 0.7941 0.0000
vt 0.3433 0.7941 0.0000
vt 0.9746 0.1993 0.0000
vt 0.9746 0.1068 0.0000
vt 0.3285 0.4466 0.0000
vt 0.2361 0.4466 0.0000
vt 0.2361 0.4406 0.0000
vt 0.3285 0.4406 0.0000
vt 0.2601 0.7751 0.0000
vt 0.3393 0.7751 0.0000
vt 0.0063 0.9983 0.0000
vt 0.0063 0.9196 0.0000
vt 0.0975 0.9983 0.0000
vt 0.3096 0.4205 0.0000
vt 0.3227 0.4201 0.0000
vt 0.3224 0.4262 0.0000
vt 0.3094 0.4265 0.0000
vt 0.3287 0.4203 0.0000
vt 0.3285 0.4264 0.0000
vt 0.4975 0.6730 0.0000
vt 0.4975 0.7655 0.0000
vt 0.4183 0.6730 0.0000
vt 0.3439 0.7751 0.0000
vt 0.7146 0.4272 0.0000
vt 0.7146 0.3331 0.0000
vt 0.7979 0.3331 0.0000
vt 0.5661 0.4336 0.0000
vt 0.6495 0.4336 0.0000
vt 0.6495 0.4466 0.0000
vt 0.5662 0.4466 0.0000
vt 0.1628 0.9552 0.0000
vt 0.2449 0.9552 0.0000
vt 0.4981 0.9552 0.0000
vt 0.5789 0.9552 0.0000
vt 0.5801 0.9682 0.0000
vt 0.1625 0.9682 0.0000
vt 0.5661 0.4275 0.0000
vt 0.6495 0.4275 0.0000
vt 0.1422 0.9790 0.0000
vt 0.0481 0.9790 0.0000
vt 0.0481 0.9730 0.0000
vt 0.1422 0.9730 0.0000
vt 0.9746 0.1004 0.0000
vt 0.9746 0.0063 0.0000
vt 0.6168 0.9982 0.0000
vt 0.5230 0.9982 0.0000
vt 0.6168 0.9150 0.0000
vt 0.5616 0.4275 0.0000
vt 0.7101 0.3291 0.0000
vt 0.7934 0.3291 0.0000
vt 0.7101 0.4232 0.0000
vt 0.3285 0.4395 0.0000
vt 0.3225 0.4395 0.0000
vt 0.3225 0.4335 0.0000
vt 0.3285 0.4335 0.0000
vt 0.3095 0.4393 0.0000
vt 0.3095 0.4333 0.0000
vt 0.7562 0.3926 0.0000
vt 0.9990 0.3926 0.0000
vt 0.9990 0.9951 0.0000
vt 0.7634 0.9951 0.0000
vt 0.6836 0.9119 0.0000
vt 0.6836 0.4751 0.0000
vt 0.5801 0.9790 0.0000
vt 0.1433 0.9790 0.0000
vt 0.1451 0.9693 0.0000
vt 0.5786 0.9693 0.0000
vt 0.4022 0.4574 0.0000
vt 0.3295 0.4574 0.0000
vt 0.3295 0.4476 0.0000
vt 0.4023 0.4476 0.0000
vt 0.4768 0.7615 0.0000
vt 0.3969 0.7615 0.0000
vt 0.3969 0.6783 0.0000
vt 0.7913 0.3510 0.0000
vt 0.8745 0.3510 0.0000
vt 0.8745 0.3607 0.0000
vt 0.7894 0.3607 0.0000
vt 0.5688 0.4107 0.0000
vt 0.6495 0.4107 0.0000
vt 0.6495 0.4205 0.0000
vt 0.5696 0.4205 0.0000
vt 0.4022 0.4634 0.0000
vt 0.3295 0.4634 0.0000
vt 0.2459 0.4503 0.0000
vt 0.3285 0.4503 0.0000
vt 0.3285 0.4563 0.0000
vt 0.2459 0.4563 0.0000
vt 0.7683 0.3714 0.0000
vt 0.8508 0.3714 0.0000
vt 0.0962 0.1280 0.0000
vt 0.1803 0.1280 0.0000
vt 0.0962 0.2008 0.0000
vt 0.4067 0.4634 0.0000
vt 0.9936 0.3891 0.0000
vt 0.9210 0.3891 0.0000
vt 0.9936 0.3066 0.0000
vt 0.2291 0.4499 0.0000
vt 0.2351 0.4503 0.0000
vt 0.2347 0.4563 0.0000
vt 0.2287 0.4559 0.0000
vt 0.2449 0.4500 0.0000
vt 0.2445 0.4560 0.0000
vt 0.7913 0.3449 0.0000
vt 0.8745 0.3449 0.0000
vt 0.2378 0.8389 0.0000
vt 0.2378 0.9542 0.0000
vt 0.2318 0.9542 0.0000
vt 0.2318 0.8389 0.0000
vt 0.6495 0.4265 0.0000
vt 0.5696 0.4265 0.0000
vt 0.7069 0.1282 0.0000
vt 0.7069 0.2089 0.0000
vt 0.6219 0.1282 0.0000
vt 0.0857 0.0697 0.0000
vt 0.0869 0.0599 0.0000
vt 0.0930 0.0599 0.0000
vt 0.0917 0.0697 0.0000
vt 0.0869 0.0539 0.0000
vt 0.0930 0.0539 0.0000
vt 0.3926 0.7657 0.0000
vt 0.3926 0.6825 0.0000
vt 0.4724 0.7657 0.0000
vt 0.5653 0.4265 0.0000
vt 0.0816 0.0063 0.0000
vt 0.0816 0.6230 0.0000
vt 0.0427 0.0073 0.0000
vt 0.0010 0.0064 0.0000
vt 0.0010 0.6229 0.0000
vt 0.0427 0.6219 0.0000
vt 0.7048 0.0494 0.0000
vt 0.1023 0.0494 0.0000
vt 0.0962 0.0433 0.0000
vt 0.7109 0.0433 0.0000
vt 0.0962 0.0591 0.0000
vt 0.0962 0.1049 0.0000
vt 0.1023 0.1179 0.0000
vt 0.0962 0.1239 0.0000
vt 0.3367 0.1179 0.0000
vt 0.4742 0.1179 0.0000
vt 0.5919 0.1179 0.0000
vt 0.7048 0.1179 0.0000
vt 0.7109 0.1239 0.0000
vt 0.3367 0.1239 0.0000
vt 0.7109 0.1049 0.0000
vt 0.7109 0.0591 0.0000
vt 0.2234 0.1239 0.0000
vt 0.2234 0.1179 0.0000
vt 0.6563 0.5489 0.0000
vt 0.6563 0.6700 0.0000
vt 0.4201 0.6700 0.0000
vt 0.3409 0.5775 0.0000
vt 0.3409 0.4968 0.0000
vt 0.4099 0.5505 0.0000
vt 0.3487 0.3892 0.0000
vt 0.3487 0.2758 0.0000
vt 0.5951 0.2743 0.0000
vt 0.5967 0.3892 0.0000
vt 0.5801 0.7951 0.0000
vt 0.5658 0.8760 0.0000
vt 0.4674 0.9542 0.0000
vt 0.2389 0.9139 0.0000
vt 0.2585 0.8027 0.0000
vt 0.5066 0.8405 0.0000
vt 0.2762 0.2122 0.0000
vt 0.3425 0.1549 0.0000
vt 0.3431 0.2692 0.0000
vt 0.3285 0.4634 0.0000
vt 0.2152 0.4634 0.0000
vt 0.2152 0.4574 0.0000
vt 0.3285 0.4574 0.0000
vt 0.1578 0.0515 0.0000
vt 0.4042 0.0515 0.0000
vt 0.4042 0.0575 0.0000
vt 0.1578 0.0575 0.0000
vt 0.2249 0.0586 0.0000
vt 0.4732 0.0586 0.0000
vt 0.4732 0.0646 0.0000
vt 0.2253 0.0646 0.0000
vt 0.1578 0.0656 0.0000
vt 0.2223 0.0656 0.0000
vt 0.2221 0.0717 0.0000
vt 0.1578 0.0717 0.0000
vt 0.1615 0.9682 0.0000
vt 0.0437 0.9682 0.0000
vt 0.0437 0.9622 0.0000
vt 0.1615 0.9622 0.0000
vt 0.4083 0.0727 0.0000
vt 0.4732 0.0727 0.0000
vt 0.4732 0.0787 0.0000
vt 0.4083 0.0787 0.0000
vt 0.5936 0.1490 0.0000
vt 0.5936 0.2667 0.0000
vt 0.1578 0.0787 0.0000
vt 0.1578 0.0727 0.0000
vt 0.4732 0.0656 0.0000
vt 0.4732 0.0717 0.0000
vt 0.4732 0.0515 0.0000
vt 0.4732 0.0575 0.0000
vt 0.6641 0.3280 0.0000
vt 0.1578 0.0646 0.0000
vt 0.1578 0.0586 0.0000
# 318 texture coords

o Box013
g Box013
usemtl wire_028149177
s off
f 1/1/1 2/2/2 3/3/3 4/4/4 
f 5/5/5 6/6/6 7/7/7 8/8/8 9/9/8 10/10/9 
f 11/11/10 12/12/11 13/13/12 14/14/12 
f 4/15/4 3/16/3 15/17/13 16/18/13 7/19/7 6/20/6 17/21/14 
f 18/22/15 19/23/16 20/24/17 21/25/18 
f 22/26/19 23/27/20 24/28/21 25/29/22 
f 26/30/23 27/31/15 28/32/24 29/33/25 
f 30/34/26 31/35/27 32/36/28 33/37/29 
f 34/38/30 35/39/31 36/40/23 37/41/18 
f 38/42/32 39/43/33 35/44/31 34/45/30 
f 40/46/34 41/47/35 42/48/36 
f 43/49/37 44/50/38 45/51/39 46/52/40 47/53/41 48/54/42 
f 49/55/43 50/56/44 51/57/45 52/58/46 
f 2/59/2 1/60/1 53/61/47 5/62/5 10/63/9 54/64/48 55/65/48 
f 56/66/21 57/67/49 58/68/50 59/69/20 
f 60/70/26 39/71/33 38/72/32 61/73/51 
f 62/74/35 63/75/52 64/76/43 36/77/23 35/78/31 
f 64/79/43 52/80/46 37/81/18 36/82/23 
f 52/83/46 51/84/45 65/85/53 34/86/30 37/87/18 
f 65/85/53 66/88/54 67/89/55 68/90/53 38/91/32 34/86/30 
f 68/90/53 25/92/22 24/93/21 61/94/51 38/91/32 
f 24/95/21 59/96/20 60/97/26 61/98/51 
f 59/99/20 58/100/50 69/101/35 39/102/33 60/103/26 
f 69/101/35 70/104/56 71/105/57 62/74/35 35/78/31 39/102/33 
f 13/13/12 72/106/58 73/107/59 14/14/12 
f 74/108/60 75/109/53 76/110/61 
f 77/111/62 27/112/15 26/113/23 78/114/63 
f 79/115/64 80/116/46 64/117/43 63/118/52 
f 27/112/15 77/111/62 81/119/65 82/120/18 
f 83/121/66 79/122/64 74/123/60 76/124/61 
f 28/32/24 27/31/15 82/125/18 84/126/67 
f 63/75/52 62/74/35 26/127/23 29/128/25 
f 62/74/35 71/105/57 78/129/63 26/127/23 
f 71/130/57 83/131/66 77/132/62 78/133/63 
f 83/131/66 76/134/61 81/135/65 77/132/62 
f 76/110/61 75/109/53 82/136/18 81/137/65 
f 75/109/53 74/108/60 84/138/67 82/136/18 
f 74/139/60 79/115/64 28/32/24 84/126/67 
f 79/115/64 63/118/52 29/33/25 28/32/24 
f 85/140/68 86/141/53 87/142/69 
f 88/143/70 31/144/27 30/145/26 89/146/71 
f 90/147/72 44/148/38 43/149/37 83/150/66 71/151/57 70/152/56 
f 31/144/27 88/143/70 91/153/73 92/154/51 
f 57/155/49 90/156/72 85/157/68 87/158/69 
f 32/36/28 31/35/27 92/159/51 93/160/74 
f 70/104/56 69/101/35 30/161/26 33/162/29 
f 69/101/35 58/100/50 89/163/71 30/161/26 
f 58/68/50 57/67/49 88/143/70 89/146/71 
f 57/67/49 87/164/69 91/153/73 88/143/70 
f 87/142/69 86/141/53 92/165/51 91/166/73 
f 86/141/53 85/140/68 93/167/74 92/165/51 
f 85/168/68 90/169/72 32/170/28 93/171/74 
f 90/169/72 70/172/56 33/173/29 32/170/28 
f 50/174/44 49/175/43 23/176/20 22/177/19 94/178/75 95/179/76 
f 95/180/76 94/181/75 67/182/55 66/183/54 
f 96/184/77 18/185/15 21/186/18 97/187/78 
f 98/188/79 99/189/35 100/190/80 
f 101/191/81 102/192/27 103/193/51 104/194/82 
f 105/195/83 103/196/51 102/197/27 106/198/84 
f 18/185/15 96/184/77 107/199/85 108/200/23 
f 50/201/44 95/202/76 40/203/34 42/204/36 
f 19/23/16 18/22/15 108/205/23 109/206/86 
f 66/88/54 65/85/53 21/207/18 20/208/17 
f 65/85/53 51/84/45 97/209/78 21/207/18 
f 51/57/45 50/56/44 96/184/77 97/187/78 
f 50/56/44 42/210/36 107/199/85 96/184/77 
f 42/48/36 41/47/35 108/211/23 107/212/85 
f 41/47/35 40/46/34 109/213/86 108/211/23 
f 40/214/34 95/215/76 19/216/16 109/217/86 
f 95/215/76 66/218/54 20/219/17 19/216/16 
f 102/192/27 101/191/81 110/220/87 111/221/26 
f 94/222/75 22/223/19 98/224/79 100/225/80 
f 106/198/84 102/197/27 111/226/26 112/227/88 
f 25/92/22 68/90/53 103/228/51 105/229/83 
f 68/90/53 67/89/55 104/230/82 103/228/51 
f 67/231/55 94/232/75 101/233/81 104/234/82 
f 94/232/75 100/235/80 110/236/87 101/233/81 
f 100/190/80 99/189/35 111/237/26 110/238/87 
f 99/189/35 98/188/79 112/239/88 111/237/26 
f 98/240/79 22/26/19 106/198/84 112/227/88 
f 22/26/19 25/29/22 105/195/83 106/198/84 
f 12/12/11 11/11/10 1/241/1 4/242/4 
f 11/11/10 14/14/12 53/243/47 1/241/1 
f 14/14/12 73/107/59 5/244/5 53/243/47 
f 73/107/59 72/106/58 6/245/6 5/244/5 
f 72/106/58 13/13/12 17/246/14 6/245/6 
f 13/13/12 12/12/11 4/242/4 17/246/14 
f 23/247/20 49/248/43 3/249/3 2/250/2 
f 49/248/43 52/80/46 15/251/13 3/249/3 
f 52/80/46 64/79/43 16/252/13 15/251/13 
f 64/79/43 80/253/46 7/254/7 16/252/13 
f 47/255/41 46/256/40 113/257/89 56/258/21 10/259/9 9/260/8 
f 56/258/21 59/96/20 54/261/48 10/259/9 
f 59/96/20 24/95/21 55/262/48 54/261/48 
f 24/95/21 23/247/20 2/250/2 55/262/48 
f 8/263/8 7/254/7 80/253/46 114/264/90 
f 114/265/90 80/266/46 79/267/64 83/268/66 43/269/37 115/270/91 
f 9/260/8 8/263/8 114/264/90 47/255/41 
f 9/271/92 8/272/93 116/273/94 117/274/95 
f 44/275/38 90/276/72 57/277/49 56/278/21 113/279/89 118/280/96 
f 119/281/97 120/282/98 121/283/99 
f 47/284/41 114/285/90 8/286/93 9/287/92 
f 114/288/90 115/289/91 116/290/94 8/291/93 
f 48/292/42 47/293/41 9/294/92 117/295/95 
f 44/296/38 118/297/96 120/298/98 119/299/97 
f 113/300/89 46/301/40 122/302/100 123/303/101 
f 45/304/39 44/305/38 119/306/97 121/307/99 
f 120/282/98 123/308/101 122/309/100 121/283/99 
f 121/307/99 122/310/100 46/311/40 45/304/39 
f 118/297/96 113/312/89 123/313/101 120/298/98 
f 115/289/91 43/314/37 124/315/102 116/290/94 
f 116/273/94 124/316/102 117/274/95 
f 117/295/95 124/317/102 43/318/37 48/292/42 
# 107 polygons - 6 triangles

