# 3ds Max Wavefront OBJ Exporter v0.99 - (c)2007 guruware
# File Created: 26.08.2021 18:53:16

mtllib libro_cerrado4_uvs.mtl

#
# object Box009
#

v  -4.9625 0.2248 0.9543
v  -4.9625 0.2248 0.9241
v  -4.9129 0.2248 0.9241
v  -4.9129 0.2248 0.9543
v  -4.9625 0.3286 0.9543
v  -4.9129 0.3286 0.9543
v  -4.9129 0.3286 0.9241
v  -4.9625 0.3286 0.9241
v  -4.9129 0.2746 0.9612
v  -4.9625 0.2746 0.9612
v  -4.4624 0.2248 0.9543
v  -4.4624 0.2248 0.9241
v  -4.4624 0.2396 0.9241
v  -4.4624 0.3089 0.9241
v  -4.4624 0.3286 0.9241
v  -4.4624 0.3286 0.9543
v  -4.4624 0.2746 0.9612
v  -4.4624 0.2248 0.6481
v  -4.5139 0.2248 0.6481
v  -4.5139 0.2396 0.6481
v  -4.4624 0.2396 0.6481
v  -4.9625 0.2248 0.6481
v  -4.9625 0.2396 0.9241
v  -4.9625 0.2396 0.6481
v  -4.4624 0.3089 0.6481
v  -4.4624 0.3286 0.6481
v  -4.9625 0.3089 0.6481
v  -4.9625 0.3286 0.6481
v  -4.9129 0.3286 0.6481
v  -4.9129 0.3089 0.6481
v  -4.4724 0.2396 0.6592
v  -4.4724 0.3089 0.6592
v  -4.4724 0.3089 0.9241
v  -4.4724 0.2396 0.9241
v  -4.9525 0.2396 0.6592
v  -4.9525 0.3089 0.6592
v  -4.9049 0.3089 0.6592
v  -4.9049 0.2396 0.6592
v  -4.9129 0.2248 0.6481
v  -4.5139 0.3286 0.6481
v  -4.5139 0.3286 0.9241
v  -4.9625 0.3089 0.9241
v  -4.9525 0.3089 0.9241
v  -4.9525 0.2396 0.9241
v  -4.5218 0.2396 0.6592
v  -4.5139 0.3286 0.9543
v  -4.5139 0.2746 0.9612
v  -4.9129 0.2157 0.9241
v  -4.8941 0.2157 0.9241
v  -4.8941 0.2157 0.9587
v  -4.9129 0.2157 0.9587
v  -4.9129 0.3377 0.9588
v  -4.8941 0.3377 0.9588
v  -4.8941 0.3377 0.9241
v  -4.9129 0.3377 0.9241
v  -4.8941 0.2745 0.9668
v  -4.9129 0.2745 0.9668
v  -4.9129 0.2396 0.6481
v  -4.8941 0.3286 0.6481
v  -4.8941 0.3089 0.6481
v  -4.8869 0.3089 0.6592
v  -4.8869 0.2396 0.6592
v  -4.8941 0.2248 0.6481
v  -4.8941 0.2248 0.9241
v  -4.8941 0.2396 0.6481
v  -4.8941 0.3286 0.9241
v  -4.7226 0.2248 0.9241
v  -4.7226 0.2248 0.9543
v  -4.8941 0.2248 0.9543
v  -4.8941 0.3286 0.9543
v  -4.7226 0.3286 0.9543
v  -4.7226 0.3286 0.9241
v  -4.7226 0.2746 0.9612
v  -4.8941 0.2746 0.9612
v  -4.7226 0.3286 0.6481
v  -4.7226 0.3089 0.6481
v  -4.7222 0.3089 0.6592
v  -4.7222 0.2396 0.6592
v  -4.7226 0.2248 0.6481
v  -4.5329 0.2248 0.6481
v  -4.5329 0.2396 0.6481
v  -4.5329 0.3286 0.6481
v  -4.5329 0.3286 0.9241
v  -4.5401 0.2396 0.6592
v  -4.5139 0.3377 0.9588
v  -4.5329 0.3377 0.9588
v  -4.5329 0.2745 0.9668
v  -4.5139 0.2745 0.9668
v  -4.5139 0.2248 0.9241
v  -4.5139 0.2248 0.9543
v  -4.5139 0.3089 0.6481
v  -4.5218 0.3089 0.6592
v  -4.5329 0.2157 0.9241
v  -4.5139 0.2157 0.9241
v  -4.5139 0.2157 0.9587
v  -4.5329 0.2157 0.9587
v  -4.5139 0.3377 0.9241
v  -4.5329 0.3377 0.9241
v  -4.5329 0.3089 0.6481
v  -4.5401 0.3089 0.6592
v  -4.5329 0.2248 0.9241
v  -4.6964 0.2248 0.6481
v  -4.6964 0.2396 0.6481
v  -4.6964 0.3286 0.6481
v  -4.6964 0.3286 0.9241
v  -4.6970 0.2396 0.6592
v  -4.5329 0.3286 0.9543
v  -4.6964 0.3286 0.9543
v  -4.6964 0.2746 0.9612
v  -4.5329 0.2746 0.9612
v  -4.6964 0.2248 0.9241
v  -4.5329 0.2248 0.9543
v  -4.6964 0.2248 0.9543
v  -4.6964 0.3089 0.6481
v  -4.6970 0.3089 0.6592
v  -4.7226 0.2396 0.6481
v  -4.6964 0.3377 0.9588
v  -4.7226 0.3377 0.9588
v  -4.7226 0.2745 0.9668
v  -4.6964 0.2745 0.9668
v  -4.7226 0.2157 0.9241
v  -4.6964 0.2157 0.9241
v  -4.6964 0.2157 0.9587
v  -4.7226 0.2157 0.9587
v  -4.6964 0.3377 0.9241
v  -4.7226 0.3377 0.9241
# 126 vertices

vn -0.5901 -0.6313 0.5031
vn -0.7071 -0.7071 -0.0000
vn -0.3015 -0.9045 -0.3015
vn -0.8772 -0.3755 0.2993
vn -0.5891 0.6275 0.5091
vn -0.8793 0.3698 0.3000
vn -0.3015 0.9045 -0.3015
vn -0.7071 0.7071 0.0000
vn -0.7588 -0.0056 0.6513
vn -0.6619 -0.0065 0.7496
vn 0.5901 -0.6313 0.5031
vn 0.7071 -0.7071 -0.0000
vn 0.9045 0.3015 -0.3015
vn 0.9045 -0.3015 -0.3015
vn 0.7071 0.7071 0.0000
vn 0.5891 0.6275 0.5091
vn 0.6619 -0.0065 0.7496
vn 0.5774 -0.5774 -0.5774
vn 0.0000 -0.7071 -0.7071
vn -0.0000 0.7071 -0.7071
vn 0.5774 0.5774 -0.5774
vn -0.5774 -0.5774 -0.5774
vn -0.9045 0.3015 -0.3015
vn -0.5774 0.5774 -0.5774
vn 0.0000 0.7071 -0.7071
vn 0.3015 0.9045 -0.3015
vn 0.3015 -0.9045 -0.3015
vn -0.9045 -0.3015 -0.3015
vn 0.8793 0.3698 0.3000
vn 0.7588 -0.0056 0.6513
vn -0.5773 -0.5773 -0.5774
vn 0.5773 -0.5773 -0.5774
vn 0.5901 -0.6313 0.5032
vn -0.5901 -0.6313 0.5032
vn 0.5774 0.5774 -0.5773
vn 0.8772 -0.3755 0.2993
vn -0.7587 -0.0056 0.6514
vn 0.7587 -0.0056 0.6514
vn 0.5774 -0.5774 -0.5773
vn 0.5901 -0.6313 0.5033
vn 0.5890 0.6275 0.5091
vn 0.5773 0.5773 -0.5774
vn -0.5774 0.5774 -0.5773
# 43 vertex normals

vt 0.9837 0.6303 0.0000
vt 0.9494 0.6303 0.0000
vt 0.9494 0.5679 0.0000
vt 0.9837 0.5679 0.0000
vt 0.9781 0.9990 0.0000
vt 0.9157 0.9990 0.0000
vt 0.9157 0.9647 0.0000
vt 0.9781 0.9647 0.0000
vt 0.1033 0.2235 0.0000
vt 0.1657 0.2235 0.0000
vt 0.1657 0.2578 0.0000
vt 0.1033 0.2578 0.0000
vt 0.4896 0.0620 0.0000
vt 0.4896 0.0963 0.0000
vt 0.4794 0.0963 0.0000
vt 0.4316 0.0963 0.0000
vt 0.4180 0.0963 0.0000
vt 0.4180 0.0620 0.0000
vt 0.4553 0.0542 0.0000
vt 0.2465 0.1135 0.0000
vt 0.2465 0.1783 0.0000
vt 0.2363 0.1783 0.0000
vt 0.2363 0.1135 0.0000
vt 0.5622 0.0542 0.0000
vt 0.5622 0.3683 0.0000
vt 0.5520 0.3683 0.0000
vt 0.5520 0.0542 0.0000
vt 0.4316 0.4104 0.0000
vt 0.4180 0.4104 0.0000
vt 0.1936 0.7428 0.0000
vt 0.1800 0.7428 0.0000
vt 0.1800 0.6804 0.0000
vt 0.1936 0.6804 0.0000
vt 0.3682 0.3557 0.0000
vt 0.3204 0.3557 0.0000
vt 0.3204 0.0542 0.0000
vt 0.3682 0.0542 0.0000
vt 0.1255 0.9018 0.0000
vt 0.0777 0.9018 0.0000
vt 0.0777 0.8419 0.0000
vt 0.1255 0.8419 0.0000
vt 0.6352 0.6303 0.0000
vt 0.6352 0.5679 0.0000
vt 0.3488 0.9647 0.0000
vt 0.3488 0.6506 0.0000
vt 0.4136 0.6506 0.0000
vt 0.4136 0.9647 0.0000
vt 0.4896 0.4104 0.0000
vt 0.4794 0.4104 0.0000
vt 0.5622 0.4026 0.0000
vt 0.5279 0.4104 0.0000
vt 0.4906 0.4026 0.0000
vt 0.4906 0.3683 0.0000
vt 0.5042 0.3683 0.0000
vt 0.4906 0.0542 0.0000
vt 0.5042 0.0542 0.0000
vt 0.3692 0.3557 0.0000
vt 0.3692 0.0542 0.0000
vt 0.4170 0.0542 0.0000
vt 0.4170 0.3557 0.0000
vt 0.6303 0.0010 0.0000
vt 0.6303 0.3151 0.0000
vt 0.6177 0.3151 0.0000
vt 0.6177 0.0136 0.0000
vt 0.5462 0.2179 0.0000
vt 0.5462 0.2657 0.0000
vt 0.5336 0.2657 0.0000
vt 0.5336 0.2179 0.0000
vt 0.5811 0.6456 0.0000
vt 0.2670 0.6456 0.0000
vt 0.2796 0.6330 0.0000
vt 0.5811 0.6330 0.0000
vt 0.2670 0.5808 0.0000
vt 0.2796 0.5708 0.0000
vt 0.2670 0.0163 0.0000
vt 0.5811 0.0163 0.0000
vt 0.5811 0.0289 0.0000
vt 0.2796 0.0289 0.0000
vt 0.4364 0.1806 0.0000
vt 0.4364 0.1328 0.0000
vt 0.4490 0.1328 0.0000
vt 0.4490 0.1806 0.0000
vt 0.0010 0.3151 0.0000
vt 0.0010 0.0010 0.0000
vt 0.0136 0.0136 0.0000
vt 0.0136 0.3151 0.0000
vt 0.0634 0.0010 0.0000
vt 0.0735 0.0136 0.0000
vt 0.0658 0.3627 0.0000
vt 0.0658 0.3999 0.0000
vt 0.0010 0.3999 0.0000
vt 0.0010 0.3627 0.0000
vt 0.5622 0.5818 0.0000
vt 0.5622 0.6054 0.0000
vt 0.5229 0.6054 0.0000
vt 0.5229 0.5818 0.0000
vt 0.5326 0.2573 0.0000
vt 0.5090 0.2573 0.0000
vt 0.5090 0.2179 0.0000
vt 0.5326 0.2179 0.0000
vt 0.4736 0.2169 0.0000
vt 0.4500 0.2169 0.0000
vt 0.4500 0.1764 0.0000
vt 0.4736 0.1764 0.0000
vt 0.2465 0.6804 0.0000
vt 0.2465 0.7428 0.0000
vt 0.2363 0.7428 0.0000
vt 0.2363 0.6804 0.0000
vt 0.1800 0.6568 0.0000
vt 0.1936 0.6568 0.0000
vt 0.0777 0.8192 0.0000
vt 0.1255 0.8192 0.0000
vt 0.6352 0.5443 0.0000
vt 0.9494 0.5443 0.0000
vt 0.9157 0.6506 0.0000
vt 0.9781 0.6506 0.0000
vt 0.2670 0.0787 0.0000
vt 0.2796 0.0888 0.0000
vt 0.0870 0.0010 0.0000
vt 0.0962 0.0136 0.0000
vt 0.1657 0.2951 0.0000
vt 0.1033 0.2951 0.0000
vt 0.2465 0.6568 0.0000
vt 0.2363 0.6568 0.0000
vt 0.8921 0.6506 0.0000
vt 0.8921 0.9647 0.0000
vt 0.2670 0.1024 0.0000
vt 0.2796 0.1115 0.0000
vt 0.4500 0.1328 0.0000
vt 0.4736 0.1328 0.0000
vt 0.9494 0.3285 0.0000
vt 0.9837 0.3285 0.0000
vt 0.9837 0.5443 0.0000
vt 0.8921 0.9990 0.0000
vt 0.6763 0.9990 0.0000
vt 0.6763 0.9647 0.0000
vt 0.1023 0.0168 0.0000
vt 0.1023 0.2325 0.0000
vt 0.0671 0.2325 0.0000
vt 0.0671 0.0168 0.0000
vt 0.1800 0.4410 0.0000
vt 0.1936 0.4410 0.0000
vt 0.0777 0.6120 0.0000
vt 0.1255 0.6120 0.0000
vt 0.6352 0.3285 0.0000
vt 0.3028 0.0010 0.0000
vt 0.3033 0.0136 0.0000
vt 0.2465 0.2022 0.0000
vt 0.2363 0.2022 0.0000
vt 0.4375 0.6506 0.0000
vt 0.4375 0.9647 0.0000
vt 0.2670 0.5569 0.0000
vt 0.2796 0.5479 0.0000
vt 0.5223 0.1328 0.0000
vt 0.5462 0.1328 0.0000
vt 0.5462 0.1764 0.0000
vt 0.5223 0.1764 0.0000
vt 0.9494 0.0658 0.0000
vt 0.9494 0.0010 0.0000
vt 0.9837 0.0010 0.0000
vt 0.9837 0.0658 0.0000
vt 0.4136 0.9990 0.0000
vt 0.3488 0.9990 0.0000
vt 0.0010 0.3284 0.0000
vt 0.0658 0.3284 0.0000
vt 0.1800 0.1783 0.0000
vt 0.1800 0.1135 0.0000
vt 0.1936 0.1135 0.0000
vt 0.1936 0.1783 0.0000
vt 0.0777 0.3599 0.0000
vt 0.0777 0.2977 0.0000
vt 0.1255 0.2977 0.0000
vt 0.1255 0.3599 0.0000
vt 0.6352 0.0658 0.0000
vt 0.6352 0.0010 0.0000
vt 0.5655 0.0010 0.0000
vt 0.5555 0.0136 0.0000
vt 0.5326 0.2977 0.0000
vt 0.5087 0.2977 0.0000
vt 0.5087 0.2584 0.0000
vt 0.5326 0.2584 0.0000
vt 0.4736 0.3031 0.0000
vt 0.4736 0.3270 0.0000
vt 0.4342 0.3270 0.0000
vt 0.4342 0.3031 0.0000
vt 0.5462 0.2169 0.0000
vt 0.5223 0.2169 0.0000
vt 0.1800 0.2022 0.0000
vt 0.1936 0.2022 0.0000
vt 0.0777 0.3828 0.0000
vt 0.1255 0.3828 0.0000
vt 0.6352 0.0897 0.0000
vt 0.9494 0.0897 0.0000
vt 0.5416 0.0010 0.0000
vt 0.5325 0.0136 0.0000
vt 0.2465 0.4080 0.0000
vt 0.2363 0.4080 0.0000
vt 0.6432 0.6506 0.0000
vt 0.6432 0.9647 0.0000
vt 0.2670 0.3512 0.0000
vt 0.2796 0.3504 0.0000
vt 0.1033 0.2225 0.0000
vt 0.1033 0.0168 0.0000
vt 0.1406 0.0168 0.0000
vt 0.1406 0.2225 0.0000
vt 0.9494 0.2954 0.0000
vt 0.9837 0.0897 0.0000
vt 0.9837 0.2954 0.0000
vt 0.6432 0.9990 0.0000
vt 0.4375 0.9990 0.0000
vt 0.1749 0.0168 0.0000
vt 0.1749 0.2225 0.0000
vt 0.1800 0.4080 0.0000
vt 0.1936 0.4080 0.0000
vt 0.0777 0.5803 0.0000
vt 0.1255 0.5803 0.0000
vt 0.6352 0.2954 0.0000
vt 0.3358 0.0010 0.0000
vt 0.3350 0.0136 0.0000
vt 0.2465 0.4410 0.0000
vt 0.2363 0.4410 0.0000
vt 0.6763 0.6506 0.0000
vt 0.2670 0.3181 0.0000
vt 0.2796 0.3187 0.0000
vt 0.4406 0.2179 0.0000
vt 0.4736 0.2179 0.0000
vt 0.4736 0.2615 0.0000
vt 0.4406 0.2615 0.0000
vt 0.0718 0.2336 0.0000
vt 0.0718 0.2666 0.0000
vt 0.0325 0.2666 0.0000
vt 0.0325 0.2336 0.0000
vt 0.4170 0.3961 0.0000
vt 0.3840 0.3961 0.0000
vt 0.3840 0.3567 0.0000
vt 0.4170 0.3567 0.0000
vt 0.4736 0.3021 0.0000
vt 0.4406 0.3021 0.0000
vt 0.0325 0.2325 0.0000
vt 0.0325 0.0168 0.0000
vt 0.2100 0.0321 0.0000
vt 0.2336 0.0321 0.0000
vt 0.2336 0.0384 0.0000
vt 0.2100 0.0384 0.0000
vt 0.4410 0.4893 0.0000
vt 0.4753 0.4893 0.0000
vt 0.4803 0.4956 0.0000
vt 0.4410 0.4956 0.0000
vt 0.4832 0.4550 0.0000
vt 0.4896 0.4550 0.0000
vt 0.4753 0.4177 0.0000
vt 0.4804 0.4114 0.0000
vt 0.4410 0.4177 0.0000
vt 0.4410 0.4114 0.0000
vt 0.2336 0.0457 0.0000
vt 0.2100 0.0457 0.0000
vt 0.2100 0.0394 0.0000
vt 0.2336 0.0394 0.0000
vt 0.5622 0.4177 0.0000
vt 0.5279 0.4177 0.0000
vt 0.5228 0.4114 0.0000
vt 0.5622 0.4114 0.0000
vt 0.5200 0.4550 0.0000
vt 0.5136 0.4550 0.0000
vt 0.5279 0.4893 0.0000
vt 0.5229 0.4956 0.0000
vt 0.5622 0.4893 0.0000
vt 0.5622 0.4956 0.0000
vt 0.2328 0.0958 0.0000
vt 0.2089 0.0958 0.0000
vt 0.2089 0.0895 0.0000
vt 0.2328 0.0895 0.0000
vt 0.4896 0.5029 0.0000
vt 0.4553 0.5029 0.0000
vt 0.4502 0.4966 0.0000
vt 0.4896 0.4966 0.0000
vt 0.4475 0.5402 0.0000
vt 0.4410 0.5402 0.0000
vt 0.4553 0.5745 0.0000
vt 0.4503 0.5808 0.0000
vt 0.4896 0.5745 0.0000
vt 0.4896 0.5808 0.0000
vt 0.2089 0.0822 0.0000
vt 0.2328 0.0822 0.0000
vt 0.2328 0.0885 0.0000
vt 0.2089 0.0885 0.0000
vt 0.2537 0.0653 0.0000
vt 0.2537 0.0310 0.0000
vt 0.2600 0.0260 0.0000
vt 0.2600 0.0653 0.0000
vt 0.2194 0.0232 0.0000
vt 0.2195 0.0168 0.0000
vt 0.1822 0.0310 0.0000
vt 0.1759 0.0259 0.0000
vt 0.1822 0.0653 0.0000
vt 0.1759 0.0653 0.0000
vt 0.4490 0.1816 0.0000
vt 0.4490 0.2146 0.0000
vt 0.4427 0.2146 0.0000
vt 0.4427 0.1816 0.0000
vt 0.1822 0.0664 0.0000
vt 0.1822 0.1007 0.0000
vt 0.1759 0.1058 0.0000
vt 0.1759 0.0664 0.0000
vt 0.2194 0.1085 0.0000
vt 0.2195 0.1149 0.0000
vt 0.2537 0.1007 0.0000
vt 0.2600 0.1057 0.0000
vt 0.2537 0.0664 0.0000
vt 0.2600 0.0664 0.0000
vt 0.4333 0.2510 0.0000
vt 0.4333 0.2179 0.0000
vt 0.4396 0.2179 0.0000
vt 0.4396 0.2510 0.0000
vt 0.5136 0.5745 0.0000
vt 0.5479 0.5745 0.0000
vt 0.5529 0.5808 0.0000
vt 0.5136 0.5808 0.0000
vt 0.5557 0.5402 0.0000
vt 0.5622 0.5402 0.0000
vt 0.5479 0.5029 0.0000
vt 0.5530 0.4966 0.0000
vt 0.5136 0.5029 0.0000
vt 0.5136 0.4966 0.0000
# 324 texture coords

o Box009
g Box009
usemtl wire_154154229
s 2
f 1/1/1 2/2/2 3/3/3 4/4/4 
s 4
f 5/5/5 6/6/6 7/7/7 8/8/8 
s 8
f 1/9/1 4/10/4 9/11/9 10/12/10 
s 16
f 11/13/11 12/14/12 13/15/13 14/16/14 15/17/15 16/18/16 17/19/17 
s 32
f 18/20/18 19/21/19 20/22/20 21/23/21 
s 64
f 22/24/22 2/25/2 23/26/23 24/27/24 
s 16
f 25/28/18 26/29/21 15/17/15 14/16/14 
s 32
f 27/30/22 28/31/24 29/32/25 30/33/19 
s 16
f 31/34/26 32/35/27 33/36/18 34/37/21 
s 32
f 35/38/7 36/39/3 37/40/19 38/41/25 
s 2
f 2/2/2 22/42/22 39/43/19 3/3/3 
s 4
f 15/44/15 26/45/21 40/46/20 41/47/26 
s 16
f 12/14/12 18/48/18 21/49/21 13/15/13 
s 64
f 2/25/2 1/50/1 10/51/10 5/52/5 8/53/8 42/54/28 23/26/23 
f 8/53/8 28/55/24 27/56/22 42/54/28 
f 43/57/22 36/58/3 35/59/7 44/60/24 
s off
f 25/61/18 14/62/14 33/63/18 32/64/27 
f 14/65/14 13/66/13 34/67/21 33/68/18 
f 13/69/13 21/70/21 31/71/26 34/72/21 
f 21/70/21 20/73/20 45/74/25 31/71/26 
f 24/75/24 23/76/23 44/77/24 35/78/7 
f 23/79/23 42/80/28 43/81/22 44/82/24 
f 42/83/28 27/84/22 36/85/3 43/86/22 
f 27/84/22 30/87/19 37/88/19 36/85/3 
s 8
f 17/89/17 16/90/16 46/91/29 47/92/30 
s 2
f 48/93/31 49/94/32 50/95/33 51/96/34 
s 4
f 52/97/5 53/98/16 54/99/35 55/100/24 
s 8
f 51/101/34 50/102/33 56/103/17 57/104/10 
s 32
f 39/105/19 22/106/22 24/107/24 58/108/25 
f 29/32/25 59/109/25 60/110/19 30/33/19 
f 37/40/19 61/111/19 62/112/25 38/41/25 
s 2
f 39/43/19 63/113/19 64/114/27 3/3/3 
s 4
f 29/115/25 28/116/24 8/8/8 7/7/7 
s off
f 58/117/25 24/75/24 35/78/7 38/118/25 
f 30/87/19 60/119/19 61/120/19 37/88/19 
s 8
f 6/121/6 5/122/5 10/12/10 9/11/9 
s 32
f 63/123/19 39/105/19 58/108/25 65/124/25 
s 4
f 59/125/25 29/115/25 7/7/7 66/126/26 
s off
f 65/127/25 58/117/25 38/118/25 62/128/25 
s 8
f 53/129/16 52/130/5 57/104/10 56/103/17 
s 2
f 64/114/27 67/131/3 68/132/4 69/133/36 
s 4
f 70/134/29 71/135/6 72/136/7 66/126/26 
s 8
f 69/137/36 68/138/4 73/139/37 74/140/38 
s 32
f 59/109/25 75/141/25 76/142/19 60/110/19 
f 61/111/19 77/143/19 78/144/25 62/112/25 
s 2
f 63/113/19 79/145/19 67/131/3 64/114/27 
s off
f 60/119/19 76/146/19 77/147/19 61/120/19 
s 32
f 19/21/19 80/148/19 81/149/20 20/22/20 
s 4
f 40/46/20 82/150/20 83/151/7 41/47/26 
s off
f 20/73/20 81/152/20 84/153/25 45/74/25 
s 8
f 85/154/16 86/155/5 87/156/10 88/157/17 
s 2
f 89/158/27 12/159/12 11/160/11 90/161/36 
s 4
f 46/162/29 16/163/16 15/44/15 41/47/26 
s 8
f 90/164/36 11/165/11 17/89/17 47/92/30 
s 32
f 40/166/20 26/167/21 25/168/18 91/169/19 
f 92/170/19 32/171/27 31/172/26 45/173/25 
s 2
f 19/174/19 18/175/18 12/159/12 89/158/27 
s off
f 91/176/19 25/61/18 32/64/27 92/177/19 
s 2
f 93/178/22 94/179/39 95/180/40 96/181/34 
s 4
f 86/182/5 85/183/16 97/184/35 98/185/24 
s 8
f 96/186/34 95/187/40 88/157/17 87/156/10 
s 32
f 82/188/20 40/166/20 91/169/19 99/189/19 
f 100/190/19 92/170/19 45/173/25 84/191/25 
s 2
f 80/192/19 19/174/19 89/158/27 101/193/3 
s off
f 99/194/19 91/176/19 92/177/19 100/195/19 
s 32
f 80/148/19 102/196/19 103/197/25 81/149/20 
s 4
f 82/150/20 104/198/25 105/199/26 83/151/7 
s off
f 81/152/20 103/200/25 106/201/25 84/153/25 
s 8
f 107/202/6 108/203/29 109/204/38 110/205/37 
s 2
f 111/206/27 101/193/3 112/207/4 113/208/36 
s 4
f 108/209/29 107/210/6 83/151/7 105/199/26 
s 8
f 113/211/36 112/212/4 110/205/37 109/204/38 
s 32
f 104/213/25 82/188/20 99/189/19 114/214/19 
f 115/215/19 100/190/19 84/191/25 106/216/25 
s 2
f 102/217/19 80/192/19 101/193/3 111/206/27 
s off
f 114/218/19 99/194/19 100/195/19 115/219/19 
s 32
f 102/196/19 79/220/19 116/221/25 103/197/25 
s 4
f 104/198/25 75/222/25 72/136/7 105/199/26 
s off
f 103/200/25 116/223/25 78/224/25 106/201/25 
s 8
f 117/225/41 118/226/5 119/227/10 120/228/17 
s 2
f 121/229/22 122/230/18 123/231/33 124/232/34 
s 4
f 118/233/5 117/234/41 125/235/42 126/236/43 
s 8
f 124/237/34 123/238/33 120/228/17 119/227/10 
s 32
f 75/141/25 104/213/25 114/214/19 76/142/19 
f 77/143/19 115/215/19 106/216/25 78/144/25 
s 2
f 79/145/19 102/217/19 111/206/27 67/131/3 
s off
f 76/146/19 114/218/19 115/219/19 77/147/19 
s 32
f 79/220/19 63/123/19 65/124/25 116/221/25 
s 4
f 75/222/25 59/125/25 66/126/26 72/136/7 
s off
f 116/223/25 65/127/25 62/128/25 78/224/25 
s 8
f 71/239/6 70/240/29 74/140/38 73/139/37 
s off
f 3/241/3 64/242/27 49/243/32 48/244/31 
f 64/245/27 69/246/36 50/247/33 49/248/32 
f 69/246/36 74/249/38 56/250/17 50/247/33 
f 74/249/38 70/251/29 53/252/16 56/250/17 
f 70/251/29 66/253/26 54/254/35 53/252/16 
f 66/255/26 7/256/7 55/257/24 54/258/35 
f 7/259/7 6/260/6 52/261/5 55/262/24 
f 6/260/6 9/263/9 57/264/10 52/261/5 
f 9/263/9 4/265/4 51/266/34 57/264/10 
f 4/265/4 3/267/3 48/268/31 51/266/34 
f 41/269/26 83/270/7 98/271/24 97/272/35 
f 83/273/7 107/274/6 86/275/5 98/276/24 
f 107/274/6 110/277/37 87/278/10 86/275/5 
f 110/277/37 112/279/4 96/280/34 87/278/10 
f 112/279/4 101/281/3 93/282/22 96/280/34 
f 101/283/3 89/284/27 94/285/39 93/286/22 
f 89/287/27 90/288/36 95/289/40 94/290/39 
f 90/288/36 47/291/30 88/292/17 95/289/40 
f 47/291/30 46/293/29 85/294/16 88/292/17 
f 46/293/29 41/295/26 97/296/35 85/294/16 
f 105/297/26 72/298/7 126/299/43 125/300/42 
f 72/301/7 71/302/6 118/303/5 126/304/43 
f 71/302/6 73/305/37 119/306/10 118/303/5 
f 73/305/37 68/307/4 124/308/34 119/306/10 
f 68/307/4 67/309/3 121/310/22 124/308/34 
f 67/311/3 111/312/27 122/313/18 121/314/22 
f 111/315/27 113/316/36 123/317/33 122/318/18 
f 113/316/36 109/319/38 120/320/17 123/317/33 
f 109/319/38 108/321/29 117/322/41 120/320/17 
f 108/321/29 105/323/26 125/324/42 117/322/41 
# 121 polygons

