# 3ds Max Wavefront OBJ Exporter v0.99 - (c)2007 guruware
# File Created: 28.08.2021 12:52:39

mtllib pergamino1.mtl

#
# object Tube002
#

v  2.5977 1.4105 2.5437
v  2.6725 1.7465 2.5795
v  2.7317 1.7382 2.6151
v  2.6794 1.3991 2.5928
v  2.7475 2.0824 2.5791
v  2.8069 2.0741 2.6149
v  2.8221 2.3993 2.5649
v  2.9066 2.4411 2.6060
v  2.8221 2.3993 2.5819
v  2.8970 2.4348 2.6166
v  2.7473 2.0825 2.5819
v  2.8050 2.0744 2.6166
v  2.6725 1.7465 2.5819
v  2.7303 1.7384 2.6166
v  2.5977 1.4105 2.5819
v  2.6555 1.4025 2.6166
v  2.7464 1.7362 2.6952
v  2.6995 1.3963 2.7031
v  2.8216 2.0721 2.6952
v  2.9217 2.4509 2.6984
v  2.9098 2.4448 2.6946
v  2.8193 2.0724 2.6946
v  2.7445 1.7364 2.6946
v  2.6697 1.4005 2.6946
v  2.7054 1.7419 2.7594
v  2.6430 1.4042 2.7916
v  2.7805 2.0778 2.7596
v  2.8792 2.4297 2.7726
v  2.8739 2.4304 2.7572
v  2.7793 2.0780 2.7572
v  2.7046 1.7420 2.7572
v  2.6298 1.4061 2.7572
v  2.6396 1.7511 2.7594
v  2.5524 1.4169 2.7916
v  2.7145 2.0870 2.7596
v  2.7837 2.3990 2.7831
v  2.7894 2.4007 2.7677
v  2.7152 2.0869 2.7572
v  2.6405 1.7510 2.7572
v  2.5657 1.4150 2.7572
v  2.5987 1.7568 2.6952
v  2.4959 1.4248 2.7031
v  2.6734 2.0928 2.6952
v  2.7260 2.3664 2.7089
v  2.7388 2.3703 2.7052
v  2.6753 2.0925 2.6946
v  2.6005 1.7566 2.6946
v  2.5257 1.4206 2.6946
v  2.6133 1.7548 2.6151
v  2.5161 1.4219 2.5928
v  2.6881 2.0907 2.6149
v  2.7543 2.3701 2.6165
v  2.7646 2.3732 2.6271
v  2.6895 2.0905 2.6166
v  2.6148 1.7546 2.6166
v  2.5400 1.4186 2.6166
v  2.5978 1.4105 2.6032
v  2.6726 1.7465 2.6130
v  2.7121 1.7410 2.6367
v  2.6434 1.4042 2.6306
v  2.7474 2.0825 2.6151
v  2.7855 2.0771 2.6380
v  2.8222 2.3993 2.6032
v  2.8671 2.4340 2.6306
v  2.8222 2.3993 2.6154
v  2.8602 2.4305 2.6382
v  2.7474 2.0825 2.6154
v  2.7853 2.0772 2.6382
v  2.6726 1.7465 2.6154
v  2.7105 1.7412 2.6382
v  2.5978 1.4105 2.6154
v  2.6358 1.4053 2.6382
v  2.7218 1.7396 2.6900
v  2.6546 1.4026 2.6922
v  2.7949 2.0758 2.6895
v  2.8772 2.4392 2.6922
v  2.8686 2.4348 2.6894
v  2.7947 2.0759 2.6894
v  2.7199 1.7399 2.6894
v  2.6451 1.4039 2.6894
v  2.6945 1.7434 2.7327
v  2.6231 1.4070 2.7415
v  2.7685 2.0795 2.7308
v  2.8358 2.4167 2.7415
v  2.8320 2.4148 2.7305
v  2.7684 2.0795 2.7305
v  2.6937 1.7436 2.7305
v  2.6189 1.4076 2.7305
v  2.6507 1.7496 2.7327
v  2.5726 1.4141 2.7415
v  2.7263 2.0854 2.7308
v  2.7961 2.4028 2.7520
v  2.8002 2.4040 2.7410
v  2.7264 2.0854 2.7305
v  2.6516 1.7494 2.7305
v  2.5768 1.4135 2.7305
v  2.6234 1.7534 2.6900
v  2.5410 1.4185 2.6922
v  2.6999 2.0891 2.6895
v  2.7656 2.3934 2.7027
v  2.7748 2.3962 2.7000
v  2.7001 2.0891 2.6894
v  2.6253 1.7531 2.6894
v  2.5506 1.4171 2.6894
v  2.6332 1.7520 2.6367
v  2.5523 1.4169 2.6306
v  2.7093 2.0878 2.6380
v  2.7765 2.3968 2.6411
v  2.7839 2.3990 2.6487
v  2.7095 2.0878 2.6382
v  2.6347 1.7518 2.6382
v  2.5599 1.4158 2.6382
# 112 vertices

vn -0.0988 -0.5597 -0.8228
vn 0.0081 0.0516 -0.9986
vn 0.8108 -0.1350 -0.5695
vn 0.5487 -0.6976 -0.4607
vn -0.0054 -0.0218 -0.9997
vn 0.7956 -0.2046 -0.5702
vn -0.1498 0.5346 -0.8317
vn 0.5228 0.6952 -0.4933
vn -0.4026 0.7491 0.5261
vn -0.7062 0.6776 0.2053
vn 0.0020 -0.0006 1.0000
vn -0.7978 0.1906 0.5720
vn 0.0000 -0.0000 1.0000
vn -0.8017 0.1785 0.5704
vn -0.1026 -0.8365 0.5383
vn -0.5992 -0.7186 0.3529
vn 0.9659 -0.1726 0.1930
vn 0.6662 -0.7296 0.1545
vn 0.9529 -0.2339 0.1930
vn 0.6639 0.7319 0.1533
vn -0.7127 0.6950 -0.0951
vn -0.9555 0.2226 -0.1937
vn -0.9577 0.2132 -0.1934
vn -0.7185 -0.6843 -0.1243
vn 0.4773 -0.0557 0.8770
vn 0.2839 -0.6349 0.7185
vn 0.4584 -0.1321 0.8789
vn 0.4096 0.5437 0.7325
vn -0.5201 0.8192 -0.2418
vn -0.4610 0.1127 -0.8802
vn -0.4678 0.1041 -0.8777
vn -0.3724 -0.7788 -0.5048
vn -0.4606 0.1545 0.8741
vn -0.4817 -0.4992 0.7202
vn -0.4775 0.0735 0.8756
vn -0.3877 0.5555 0.7356
vn -0.2229 0.7712 -0.5963
vn 0.4731 -0.0944 -0.8759
vn 0.4678 -0.1041 -0.8777
vn 0.1492 -0.8709 -0.4683
vn -0.9477 0.2551 0.1918
vn -0.8770 -0.4539 0.1576
vn -0.9624 0.1952 0.1888
vn -0.8269 0.5521 0.1068
vn 0.4741 0.8238 -0.3108
vn 0.9586 -0.2129 -0.1893
vn 0.9577 -0.2132 -0.1934
vn 0.4404 -0.8912 -0.1085
vn -0.7931 0.2238 -0.5664
vn -0.7521 -0.4659 -0.4661
vn -0.8005 0.1854 -0.5699
vn -0.6979 0.6032 -0.3861
vn 0.4283 0.7350 0.5256
vn 0.7959 -0.2040 0.5701
vn 0.8017 -0.1785 0.5704
vn 0.3420 -0.8860 0.3131
vn -0.1030 -0.5879 -0.8023
vn 0.0028 0.0172 -0.9998
vn 0.8048 -0.1638 -0.5705
vn 0.5302 -0.7203 -0.4473
vn -0.0045 -0.0145 -0.9999
vn 0.8017 -0.1842 -0.5686
vn -0.0535 0.4763 -0.8777
vn 0.4858 0.7023 -0.5203
vn -0.3421 0.7555 0.5586
vn -0.7254 0.6807 0.1023
vn -0.8030 0.1744 0.5699
vn -0.0000 0.0000 1.0000
vn 0.9606 -0.1995 0.1934
vn 0.6444 -0.7499 0.1498
vn 0.9578 -0.2132 0.1926
vn 0.6438 0.7289 0.2327
vn -0.7068 0.7039 -0.0703
vn -0.9594 0.2055 -0.1932
vn 0.4709 -0.0879 0.8778
vn 0.2720 -0.6611 0.6992
vn 0.4716 -0.1108 0.8748
vn 0.2884 0.6406 0.7117
vn -0.6192 0.6605 -0.4246
vn -0.4727 0.0976 -0.8758
vn -0.4653 0.1207 0.8769
vn -0.4785 -0.5271 0.7022
vn -0.4760 0.0796 0.8759
vn -0.3186 0.5275 0.7875
vn -0.1995 0.8352 -0.5125
vn 0.4727 -0.0933 -0.8763
vn -0.9546 0.2271 0.1930
vn -0.8641 -0.4793 0.1535
vn -0.9594 0.2093 0.1890
vn -0.7884 0.5996 0.1374
vn 0.5522 0.8137 -0.1815
vn 0.9570 -0.2197 -0.1894
vn -0.7989 0.1935 -0.5695
vn -0.7425 -0.4925 -0.4540
vn -0.8004 0.1818 -0.5713
vn -0.6679 0.6384 -0.3826
vn 0.4639 0.8155 0.3459
vn 0.7974 -0.1932 0.5717
# 98 vertex normals

vt 0.3088 0.1061 0.0000
vt 0.2597 0.3060 0.0000
vt 0.2186 0.3011 0.0000
vt 0.2521 0.0994 0.0000
vt 0.2215 0.5062 0.0000
vt 0.1803 0.5013 0.0000
vt 0.1878 0.6953 0.0000
vt 0.1321 0.7203 0.0000
vt 0.5483 0.5648 0.0000
vt 0.5528 0.5557 0.0000
vt 0.6018 0.5567 0.0000
vt 0.6042 0.5648 0.0000
vt 0.0330 0.7168 0.0000
vt 0.0355 0.5232 0.0000
vt 0.0700 0.5268 0.0000
vt 0.0712 0.7480 0.0000
vt 0.0407 0.3186 0.0000
vt 0.0751 0.3222 0.0000
vt 0.0458 0.1139 0.0000
vt 0.0803 0.1176 0.0000
vt 0.6134 0.3024 0.0000
vt 0.6134 0.2797 0.0000
vt 0.6620 0.3089 0.0000
vt 0.6478 0.3230 0.0000
vt 0.9990 0.0081 0.0000
vt 0.9857 0.2098 0.0000
vt 0.9381 0.2086 0.0000
vt 0.9334 0.0065 0.0000
vt 0.9859 0.4095 0.0000
vt 0.9381 0.4083 0.0000
vt 0.9912 0.6278 0.0000
vt 0.9362 0.6336 0.0000
vt 0.6290 0.5183 0.0000
vt 0.6364 0.5194 0.0000
vt 0.6412 0.0814 0.0000
vt 0.4202 0.0901 0.0000
vt 0.4192 0.0429 0.0000
vt 0.6470 0.0343 0.0000
vt 0.2157 0.0971 0.0000
vt 0.2147 0.0500 0.0000
vt 0.0112 0.1042 0.0000
vt 0.0103 0.0570 0.0000
vt 0.6740 0.3745 0.0000
vt 0.6563 0.3694 0.0000
vt 0.9000 0.2120 0.0000
vt 0.8808 0.0112 0.0000
vt 0.8998 0.4117 0.0000
vt 0.8921 0.6210 0.0000
vt 0.6262 0.4755 0.0000
vt 0.6330 0.4687 0.0000
vt 0.4155 0.0099 0.0000
vt 0.6322 0.0010 0.0000
vt 0.2110 0.0170 0.0000
vt 0.0065 0.0241 0.0000
vt 0.6404 0.4271 0.0000
vt 0.6325 0.4067 0.0000
vt 0.1394 0.1106 0.0000
vt 0.1268 0.3144 0.0000
vt 0.0876 0.3102 0.0000
vt 0.0853 0.1048 0.0000
vt 0.1218 0.5190 0.0000
vt 0.0824 0.5148 0.0000
vt 0.1282 0.7362 0.0000
vt 0.0775 0.7048 0.0000
vt 0.5838 0.4478 0.0000
vt 0.5847 0.4382 0.0000
vt 0.4247 0.1048 0.0000
vt 0.3685 0.3144 0.0000
vt 0.3304 0.3091 0.0000
vt 0.3745 0.1225 0.0000
vt 0.3240 0.5142 0.0000
vt 0.2859 0.5089 0.0000
vt 0.2795 0.7140 0.0000
vt 0.2414 0.7086 0.0000
vt 0.5865 0.4271 0.0000
vt 0.5944 0.4067 0.0000
vt 0.9894 0.7968 0.0000
vt 0.7906 0.7776 0.0000
vt 0.7872 0.7395 0.0000
vt 0.9847 0.7442 0.0000
vt 0.5909 0.7778 0.0000
vt 0.5874 0.7395 0.0000
vt 0.4054 0.7917 0.0000
vt 0.4247 0.7477 0.0000
vt 0.5404 0.4681 0.0000
vt 0.5345 0.4627 0.0000
vt 0.3671 0.6951 0.0000
vt 0.3972 0.5056 0.0000
vt 0.4413 0.5091 0.0000
vt 0.4148 0.6766 0.0000
vt 0.4222 0.3025 0.0000
vt 0.4664 0.3060 0.0000
vt 0.4473 0.0994 0.0000
vt 0.4914 0.1029 0.0000
vt 0.5529 0.3745 0.0000
vt 0.5706 0.3694 0.0000
vt 0.7885 0.6919 0.0000
vt 0.9864 0.6786 0.0000
vt 0.5887 0.6917 0.0000
vt 0.4226 0.6927 0.0000
vt 0.5339 0.5165 0.0000
vt 0.5256 0.5195 0.0000
vt 0.1464 0.2763 0.0000
vt 0.1431 0.1068 0.0000
vt 0.1901 0.1048 0.0000
vt 0.1951 0.2788 0.0000
vt 0.4999 0.3105 0.0000
vt 0.4748 0.5136 0.0000
vt 0.5250 0.1073 0.0000
vt 0.5649 0.3089 0.0000
vt 0.5791 0.3230 0.0000
vt 0.6045 0.1008 0.0000
vt 0.5609 0.3028 0.0000
vt 0.5198 0.2977 0.0000
vt 0.5479 0.0939 0.0000
vt 0.5221 0.5029 0.0000
vt 0.4809 0.4979 0.0000
vt 0.4883 0.6698 0.0000
vt 0.4382 0.6855 0.0000
vt 0.0037 0.6934 0.0000
vt 0.0010 0.5195 0.0000
vt 0.0062 0.3149 0.0000
vt 0.0114 0.1103 0.0000
vt 0.3469 0.1086 0.0000
vt 0.3024 0.3084 0.0000
vt 0.2790 0.3051 0.0000
vt 0.3198 0.1048 0.0000
vt 0.2580 0.5082 0.0000
vt 0.2353 0.5050 0.0000
vt 0.2135 0.6966 0.0000
vt 0.1868 0.7173 0.0000
vt 0.1385 0.3684 0.0000
vt 0.1431 0.3628 0.0000
vt 0.1692 0.3670 0.0000
vt 0.1694 0.3731 0.0000
vt 0.8553 0.6094 0.0000
vt 0.8515 0.4158 0.0000
vt 0.8779 0.4174 0.0000
vt 0.8780 0.6322 0.0000
vt 0.8498 0.2111 0.0000
vt 0.8762 0.2127 0.0000
vt 0.8480 0.0065 0.0000
vt 0.8744 0.0081 0.0000
vt 0.5375 0.5711 0.0000
vt 0.5375 0.5638 0.0000
vt 0.5646 0.5801 0.0000
vt 0.5601 0.5847 0.0000
vt 0.8320 0.0074 0.0000
vt 0.8284 0.2077 0.0000
vt 0.7967 0.2069 0.0000
vt 0.7954 0.0065 0.0000
vt 0.8276 0.4076 0.0000
vt 0.7970 0.4068 0.0000
vt 0.8320 0.6198 0.0000
vt 0.7954 0.6229 0.0000
vt 0.1926 0.3469 0.0000
vt 0.1975 0.3489 0.0000
vt 0.6170 0.9958 0.0000
vt 0.4068 0.9958 0.0000
vt 0.4060 0.9653 0.0000
vt 0.6195 0.9653 0.0000
vt 0.2070 0.9958 0.0000
vt 0.2063 0.9653 0.0000
vt 0.0072 0.9958 0.0000
vt 0.0065 0.9653 0.0000
vt 0.5713 0.6167 0.0000
vt 0.5656 0.6151 0.0000
vt 0.7712 0.2092 0.0000
vt 0.7660 0.0091 0.0000
vt 0.7724 0.4090 0.0000
vt 0.7660 0.6095 0.0000
vt 0.1916 0.3142 0.0000
vt 0.1976 0.3106 0.0000
vt 0.4082 0.9409 0.0000
vt 0.6076 0.9409 0.0000
vt 0.2084 0.9409 0.0000
vt 0.0086 0.9409 0.0000
vt 0.5525 0.6461 0.0000
vt 0.5500 0.6396 0.0000
vt 0.7526 0.0086 0.0000
vt 0.7525 0.2131 0.0000
vt 0.7263 0.2113 0.0000
vt 0.7223 0.0065 0.0000
vt 0.7540 0.4178 0.0000
vt 0.7287 0.4160 0.0000
vt 0.7515 0.6222 0.0000
vt 0.7301 0.6092 0.0000
vt 0.1811 0.2972 0.0000
vt 0.1835 0.2906 0.0000
vt 0.4424 0.1158 0.0000
vt 0.4046 0.3151 0.0000
vt 0.3796 0.3116 0.0000
vt 0.4234 0.1222 0.0000
vt 0.3601 0.5149 0.0000
vt 0.3351 0.5114 0.0000
vt 0.3156 0.7147 0.0000
vt 0.2906 0.7112 0.0000
vt 0.5225 0.6461 0.0000
vt 0.5250 0.6396 0.0000
vt 0.0065 0.7941 0.0000
vt 0.2060 0.7994 0.0000
vt 0.2082 0.8248 0.0000
vt 0.0091 0.8235 0.0000
vt 0.4057 0.8005 0.0000
vt 0.4079 0.8251 0.0000
vt 0.5944 0.7879 0.0000
vt 0.5889 0.8172 0.0000
vt 0.1539 0.3062 0.0000
vt 0.1507 0.3015 0.0000
vt 0.6174 0.9365 0.0000
vt 0.4279 0.9302 0.0000
vt 0.4301 0.9058 0.0000
vt 0.6128 0.9120 0.0000
vt 0.2281 0.9302 0.0000
vt 0.2303 0.9058 0.0000
vt 0.0283 0.9302 0.0000
vt 0.0305 0.9058 0.0000
vt 0.5037 0.6167 0.0000
vt 0.5094 0.6151 0.0000
vt 0.2074 0.8565 0.0000
vt 0.0081 0.8601 0.0000
vt 0.4071 0.8557 0.0000
vt 0.5909 0.8538 0.0000
vt 0.1384 0.3330 0.0000
vt 0.1321 0.3337 0.0000
vt 0.4293 0.8753 0.0000
vt 0.6144 0.8816 0.0000
vt 0.2295 0.8753 0.0000
vt 0.0297 0.8753 0.0000
vt 0.5104 0.5801 0.0000
vt 0.5150 0.5847 0.0000
vt 0.3740 0.1124 0.0000
vt 0.3259 0.3117 0.0000
vt 0.2806 0.5114 0.0000
vt 0.2406 0.6951 0.0000
vt 0.6896 0.6116 0.0000
vt 0.6905 0.4212 0.0000
vt 0.7168 0.4230 0.0000
vt 0.7192 0.6166 0.0000
vt 0.6900 0.2166 0.0000
vt 0.7163 0.2184 0.0000
vt 0.6895 0.0119 0.0000
vt 0.7158 0.0137 0.0000
# 243 texture coords

o Tube002
g Tube002
usemtl wire_228214153
s 2
f 1/1/1 2/2/2 3/3/3 4/4/4 
f 2/2/2 5/5/5 6/6/6 3/3/3 
f 5/5/5 7/7/7 8/8/8 6/6/6 
s 4
f 7/9/7 9/10/9 10/11/10 8/12/8 
s 2
f 9/13/9 11/14/11 12/15/12 10/16/10 
f 11/14/11 13/17/13 14/18/14 12/15/12 
f 13/17/13 15/19/15 16/20/16 14/18/14 
s 4
f 15/21/15 1/22/1 4/23/4 16/24/16 
s 2
f 4/25/4 3/26/3 17/27/17 18/28/18 
f 3/26/3 6/29/6 19/30/19 17/27/17 
f 6/29/6 8/31/8 20/32/20 19/30/19 
s 4
f 8/12/8 10/11/10 21/33/21 20/34/20 
s 2
f 10/35/10 12/36/12 22/37/22 21/38/21 
f 12/36/12 14/39/14 23/40/23 22/37/22 
f 14/39/14 16/41/16 24/42/24 23/40/23 
s 4
f 16/24/16 4/23/4 18/43/18 24/44/24 
s 2
f 18/28/18 17/27/17 25/45/25 26/46/26 
f 17/27/17 19/30/19 27/47/27 25/45/25 
f 19/30/19 20/32/20 28/48/28 27/47/27 
s 4
f 20/34/20 21/33/21 29/49/29 28/50/28 
s 2
f 21/38/21 22/37/22 30/51/30 29/52/29 
f 22/37/22 23/40/23 31/53/31 30/51/30 
f 23/40/23 24/42/24 32/54/32 31/53/31 
s 4
f 24/44/24 18/43/18 26/55/26 32/56/32 
s 2
f 26/57/26 25/58/25 33/59/33 34/60/34 
f 25/58/25 27/61/27 35/62/35 33/59/33 
f 27/61/27 28/63/28 36/64/36 35/62/35 
s 4
f 28/50/28 29/49/29 37/65/37 36/66/36 
s 2
f 29/67/29 30/68/30 38/69/38 37/70/37 
f 30/68/30 31/71/31 39/72/39 38/69/38 
f 31/71/31 32/73/32 40/74/40 39/72/39 
s 4
f 32/56/32 26/55/26 34/75/34 40/76/40 
s 2
f 34/77/34 33/78/33 41/79/41 42/80/42 
f 33/78/33 35/81/35 43/82/43 41/79/41 
f 35/81/35 36/83/36 44/84/44 43/82/43 
s 4
f 36/66/36 37/65/37 45/85/45 44/86/44 
s 2
f 37/87/37 38/88/38 46/89/46 45/90/45 
f 38/88/38 39/91/39 47/92/47 46/89/46 
f 39/91/39 40/93/40 48/94/48 47/92/47 
s 4
f 40/76/40 34/75/34 42/95/42 48/96/48 
s 2
f 42/80/42 41/79/41 49/97/49 50/98/50 
f 41/79/41 43/82/43 51/99/51 49/97/49 
f 43/82/43 44/84/44 52/100/52 51/99/51 
s 4
f 44/86/44 45/85/45 53/101/53 52/102/52 
s 2
f 45/103/45 46/104/46 54/105/54 53/106/53 
f 46/89/46 47/92/47 55/107/55 54/108/54 
f 47/92/47 48/94/48 56/109/56 55/107/55 
s 4
f 48/96/48 42/95/42 50/110/50 56/111/56 
s 2
f 50/112/50 49/113/49 2/114/2 1/115/1 
f 49/113/49 51/116/51 5/117/5 2/114/2 
f 51/116/51 52/118/52 7/119/7 5/117/5 
s 4
f 52/102/52 53/101/53 9/10/9 7/9/7 
s 2
f 53/120/53 54/121/54 11/14/11 9/13/9 
f 54/121/54 55/122/55 13/17/13 11/14/11 
f 55/122/55 56/123/56 15/19/15 13/17/13 
s 4
f 56/111/56 50/110/50 1/22/1 15/21/15 
s 2
f 57/124/57 58/125/58 59/126/59 60/127/60 
f 58/125/58 61/128/61 62/129/62 59/126/59 
f 61/128/61 63/130/63 64/131/64 62/129/62 
s 4
f 63/132/63 65/133/65 66/134/66 64/135/64 
s 2
f 65/136/65 67/137/11 68/138/67 66/139/66 
f 67/137/11 69/140/68 70/141/14 68/138/67 
f 69/140/68 71/142/15 72/143/16 70/141/14 
s 4
f 71/144/15 57/145/57 60/146/60 72/147/16 
s 2
f 60/148/60 59/149/59 73/150/69 74/151/70 
f 59/149/59 62/152/62 75/153/71 73/150/69 
f 62/152/62 64/154/64 76/155/72 75/153/71 
s 4
f 64/135/64 66/134/66 77/156/73 76/157/72 
s 2
f 66/158/66 68/159/67 78/160/74 77/161/73 
f 68/159/67 70/162/14 79/163/23 78/160/74 
f 70/162/14 72/164/16 80/165/24 79/163/23 
s 4
f 72/147/16 60/146/60 74/166/70 80/167/24 
s 2
f 74/151/70 73/150/69 81/168/75 82/169/76 
f 73/150/69 75/153/71 83/170/77 81/168/75 
f 75/153/71 76/155/72 84/171/78 83/170/77 
s 4
f 76/157/72 77/156/73 85/172/79 84/173/78 
s 2
f 77/161/73 78/160/74 86/174/80 85/175/79 
f 78/160/74 79/163/23 87/176/31 86/174/80 
f 79/163/23 80/165/24 88/177/32 87/176/31 
s 4
f 80/167/24 74/166/70 82/178/76 88/179/32 
s 2
f 82/180/76 81/181/75 89/182/81 90/183/82 
f 81/181/75 83/184/77 91/185/83 89/182/81 
f 83/184/77 84/186/78 92/187/84 91/185/83 
s 4
f 84/173/78 85/172/79 93/188/85 92/189/84 
s 2
f 85/190/79 86/191/80 94/192/86 93/193/85 
f 86/191/80 87/194/31 95/195/39 94/192/86 
f 87/194/31 88/196/32 96/197/40 95/195/39 
s 4
f 88/179/32 82/178/76 90/198/82 96/199/40 
s 2
f 90/200/82 89/201/81 97/202/87 98/203/88 
f 89/201/81 91/204/83 99/205/89 97/202/87 
f 91/204/83 92/206/84 100/207/90 99/205/89 
s 4
f 92/189/84 93/188/85 101/208/91 100/209/90 
s 2
f 93/210/85 94/211/86 102/212/92 101/213/91 
f 94/211/86 95/214/39 103/215/47 102/212/92 
f 95/214/39 96/216/40 104/217/48 103/215/47 
s 4
f 96/199/40 90/198/82 98/218/88 104/219/48 
s 2
f 98/203/88 97/202/87 105/220/93 106/221/94 
f 97/202/87 99/205/89 107/222/95 105/220/93 
f 99/205/89 100/207/90 108/223/96 107/222/95 
s 4
f 100/209/90 101/208/91 109/224/97 108/225/96 
s 2
f 101/213/91 102/212/92 110/226/98 109/227/97 
f 102/212/92 103/215/47 111/228/55 110/226/98 
f 103/215/47 104/217/48 112/229/56 111/228/55 
s 4
f 104/219/48 98/218/88 106/230/94 112/231/56 
s 2
f 106/232/94 105/233/93 58/125/58 57/124/57 
f 105/233/93 107/234/95 61/128/61 58/125/58 
f 107/234/95 108/235/96 63/130/63 61/128/61 
s 4
f 108/225/96 109/224/97 65/133/65 63/132/63 
s 2
f 109/236/97 110/237/98 67/238/11 65/239/65 
f 110/237/98 111/240/55 69/241/68 67/238/11 
f 111/240/55 112/242/56 71/243/15 69/241/68 
s 4
f 112/231/56 106/230/94 57/145/57 71/144/15 
# 112 polygons

